<?xml version="1.0" encoding="utf-8"?>
<!-- Generator: Adobe Illustrator 18.0.0, SVG Export Plug-In . SVG Version: 6.00 Build 0)  -->
<!DOCTYPE svg PUBLIC "-//W3C//DTD SVG 1.1//EN" "http://www.w3.org/Graphics/SVG/1.1/DTD/svg11.dtd">
<svg version="1.1" id="Layer_1" xmlns="http://www.w3.org/2000/svg" xmlns:xlink="http://www.w3.org/1999/xlink" x="0px" y="0px"
	 viewBox="0 0 175.7 98.7" enable-background="new 0 0 175.7 98.7" xml:space="preserve">
<path d="M87.9,0c48.5,0,87.9,22.1,87.9,49.4c0,27.3-39.3,49.4-87.9,49.4C39.3,98.7,0,76.6,0,49.4C0,22.1,39.3,0,87.9,0L87.9,0z"/>
<path fill="#FFDD00" d="M117.9,15.1c0,0,8.2,11.3,4.4,17.2c-2.8,4.3-7.4,5.4-11.3,5.4c-11.4,0-11.9-6.5-11.9-6.5l-1.6-19.8l-5.3,8.5
	h-8.8l-5.3-8.5l-1.6,19.8c0,0-0.4,6.5-11.9,6.5c-3.9,0-8.5-1.1-11.3-5.4c-3.8-5.9,4.4-17.2,4.4-17.2c-22.5,6.2-38,19.3-38,34.3
	c0,11.8,9.5,22.3,24.3,29.3c-1.8-2.5-6.1-9.7-1.2-14.8c6-6.3,15.4-2.5,19.5,3.8c0,0,0.3-7.2,7.5-6.3c7.2,0.9,16.7,9.4,17.9,19.5
	c1.3-10.1,10.7-18.5,17.9-19.5c7.2-0.9,7.5,6.3,7.5,6.3c4.1-6.3,13.5-10.1,19.5-3.8c4.9,5.1,0.5,12.3-1.2,14.8
	c14.9-7,24.3-17.5,24.3-29.3C155.9,34.3,140.4,21.3,117.9,15.1L117.9,15.1z M87.9,4.9c43.7,0,79.1,19.9,79.1,44.4
	c0,24.5-35.4,44.4-79.1,44.4c-43.7,0-79.1-19.9-79.1-44.4C8.8,24.8,44.2,4.9,87.9,4.9L87.9,4.9z"/>
</svg>
